<svg height="488pt" viewBox="-76 0 488 488" width="488pt" xmlns="http://www.w3.org/2000/svg"><path d="m316 484h-296c-8.835938 0-16-7.164062-16-16v-448c0-8.835938 7.164062-16 16-16h296c8.835938 0 16 7.164062 16 16v448c0 8.835938-7.164062 16-16 16zm0 0" fill="#e0ebfc"/><path d="m246.605469 122.328125h-157.851563l18.554688-50.550781c3.082031-8.394532 10.933594-13.953125 19.707031-13.953125h81.328125c8.773438 0 16.625 5.558593 19.703125 13.953125zm0 0" fill="#4671c6"/><path d="m104.988281 108.722656 12.171875-33.171875c1.542969-4.195312 5.46875-6.976562 9.855469-6.976562h81.324219c4.386718 0 8.3125 2.78125 9.855468 6.976562l12.171876 33.167969c.507812 1.382812-.492188 2.859375-1.9375 2.859375h-121.5c-1.449219 0-2.449219-1.472656-1.941407-2.855469zm0 0" fill="#e0ebfc"/><path d="m291.257812 85.511719c0-5.886719-4.675781-10.660157-10.4375-10.660157-5.765624 0-10.4375 4.773438-10.4375 10.660157 0 5.890625 4.671876 10.664062 10.4375 10.664062 5.761719 0 10.4375-4.773437 10.4375-10.664062zm0 0" fill="#a4c9ff"/><path d="m181.675781 90.078125h-27.988281c-1.960938 0-3.546875-1.589844-3.546875-3.546875v-7.242188c0-1.960937 1.585937-3.546874 3.546875-3.546874h27.988281c1.957031 0 3.542969 1.585937 3.542969 3.546874v7.242188c0 1.957031-1.585938 3.546875-3.542969 3.546875zm0 0" fill="#a4c9ff"/><path d="m168.496094 82.910156h-1.636719c-1.484375 0-2.6875-1.203125-2.6875-2.691406v-11.644531h7.015625v11.644531c0 1.488281-1.203125 2.691406-2.691406 2.691406zm0 0" fill="#4671c6"/><path d="m264.425781 194.300781h-195.042969c-3.324218 0-6.015624-2.691406-6.015624-6.015625v-15.46875c0-3.320312 2.691406-6.015625 6.015624-6.015625h195.042969c3.320313 0 6.015625 2.695313 6.015625 6.015625v15.46875c0 3.324219-2.695312 6.015625-6.015625 6.015625zm0 0" fill="#6bdddd"/><path d="m93.488281 194.300781v19.015625c0 3.359375 2.664063 6.082032 5.953125 6.082032h17.082032c3.289062 0 5.953124-2.71875 5.953124-6.082032v-19.015625zm0 0" fill="#f9a7a7"/><path d="m214.507812 194.300781v19.015625c0 3.359375 2.667969 6.082032 5.953126 6.082032h17.082031c3.289062 0 5.953125-2.71875 5.953125-6.082032v-19.015625zm0 0" fill="#f9a7a7"/><path d="m264.488281 166.800781c.488281 0 .957031.066407 1.410157.179688v-34.265625c0-5.734375-4.550782-10.386719-10.164063-10.386719h-176.105469c-5.613281 0-10.167968 4.652344-10.167968 10.386719v34.085937zm0 0" fill="#4671c6"/><path d="m107.171875 162.074219c-9.453125 0-17.140625-7.855469-17.140625-17.507813 0-9.65625 7.6875-17.507812 17.140625-17.507812 9.449219 0 17.136719 7.851562 17.136719 17.507812-.003906 9.652344-7.691406 17.507813-17.136719 17.507813zm0 0" fill="#f9a7a7"/><path d="m107.171875 156.785156c-6.597656 0-11.960937-5.480468-11.960937-12.21875 0-6.738281 5.363281-12.21875 11.960937-12.21875 6.59375 0 11.957031 5.480469 11.957031 12.21875 0 6.738282-5.363281 12.21875-11.957031 12.21875zm0 0" fill="#ffea92"/><path d="m228.191406 162.074219c-9.453125 0-17.140625-7.855469-17.140625-17.507813 0-9.65625 7.6875-17.507812 17.140625-17.507812 9.449219 0 17.136719 7.851562 17.136719 17.507812 0 9.652344-7.6875 17.507813-17.136719 17.507813zm0 0" fill="#f9a7a7"/><path d="m228.191406 156.785156c-6.59375 0-11.960937-5.480468-11.960937-12.21875 0-6.738281 5.367187-12.21875 11.960937-12.21875s11.957032 5.480469 11.957032 12.21875c0 6.738282-5.363282 12.21875-11.957032 12.21875zm0 0" fill="#ffea92"/><path d="m200.324219 153.527344h-65.289063c-2.3125 0-4.1875-1.875-4.1875-4.1875v-9.546875c0-2.3125 1.875-4.183594 4.1875-4.183594h65.289063c2.3125 0 4.1875 1.871094 4.1875 4.183594v9.546875c0 2.3125-1.875 4.1875-4.1875 4.1875zm0 0" fill="#f9cfcf"/><path d="m95.257812 77.511719c0-5.886719-4.675781-10.660157-10.4375-10.660157-5.765624 0-10.4375 4.773438-10.4375 10.660157 0 5.890625 4.671876 10.664062 10.4375 10.664062 5.761719 0 10.4375-4.773437 10.4375-10.664062zm0 0" fill="#a4c9ff"/><path d="m71.824219 277.703125h-27.601563c-2.320312 0-4.199218-1.882813-4.199218-4.199219v-15.605468c0-2.320313 1.878906-4.199219 4.199218-4.199219h27.601563c2.320312 0 4.203125 1.878906 4.203125 4.199219v15.605468c0 2.316406-1.882813 4.199219-4.203125 4.199219zm0 0" fill="#f9a7a7"/><path d="m245.386719 273.703125h-144c-4.417969 0-8-3.582031-8-8s3.582031-8 8-8h144c4.417969 0 8 3.582031 8 8s-3.582031 8-8 8zm0 0" fill="#6bdddd"/><path d="m71.824219 333.703125h-27.601563c-2.320312 0-4.199218-1.882813-4.199218-4.199219v-15.605468c0-2.320313 1.878906-4.199219 4.199218-4.199219h27.601563c2.320312 0 4.203125 1.878906 4.203125 4.199219v15.605468c0 2.316406-1.882813 4.199219-4.203125 4.199219zm0 0" fill="#f9a7a7"/><path d="m245.386719 329.703125h-144c-4.417969 0-8-3.582031-8-8s3.582031-8 8-8h144c4.417969 0 8 3.582031 8 8s-3.582031 8-8 8zm0 0" fill="#6bdddd"/><path d="m71.824219 389.703125h-27.601563c-2.320312 0-4.199218-1.882813-4.199218-4.199219v-15.605468c0-2.320313 1.878906-4.199219 4.199218-4.199219h27.601563c2.320312 0 4.203125 1.878906 4.203125 4.199219v15.605468c0 2.316406-1.882813 4.199219-4.203125 4.199219zm0 0" fill="#f9a7a7"/><path d="m245.386719 385.703125h-144c-4.417969 0-8-3.582031-8-8s3.582031-8 8-8h144c4.417969 0 8 3.582031 8 8s-3.582031 8-8 8zm0 0" fill="#6bdddd"/><path d="m71.824219 445.703125h-27.601563c-2.320312 0-4.199218-1.882813-4.199218-4.199219v-15.605468c0-2.320313 1.878906-4.199219 4.199218-4.199219h27.601563c2.320312 0 4.203125 1.878906 4.203125 4.199219v15.605468c0 2.316406-1.882813 4.199219-4.203125 4.199219zm0 0" fill="#f9a7a7"/><g fill="#6bdddd"><path d="m245.386719 441.703125h-144c-4.417969 0-8-3.582031-8-8s3.582031-8 8-8h144c4.417969 0 8 3.582031 8 8s-3.582031 8-8 8zm0 0"/><path d="m289.238281 273.703125h-11.863281c-3.351562 0-6.066406-2.71875-6.066406-6.070313v-3.863281c0-3.351562 2.714844-6.066406 6.066406-6.066406h11.863281c3.355469 0 6.070313 2.714844 6.070313 6.066406v3.863281c0 3.351563-2.714844 6.070313-6.070313 6.070313zm0 0"/><path d="m289.238281 329.703125h-11.863281c-3.351562 0-6.066406-2.71875-6.066406-6.070313v-3.863281c0-3.351562 2.714844-6.066406 6.066406-6.066406h11.863281c3.355469 0 6.070313 2.714844 6.070313 6.066406v3.863281c0 3.351563-2.714844 6.070313-6.070313 6.070313zm0 0"/><path d="m289.238281 385.703125h-11.863281c-3.351562 0-6.066406-2.71875-6.066406-6.070313v-3.863281c0-3.351562 2.714844-6.066406 6.066406-6.066406h11.863281c3.355469 0 6.070313 2.714844 6.070313 6.066406v3.863281c0 3.351563-2.714844 6.070313-6.070313 6.070313zm0 0"/><path d="m289.238281 441.703125h-11.863281c-3.351562 0-6.066406-2.71875-6.066406-6.070313v-3.863281c0-3.351562 2.714844-6.066406 6.066406-6.066406h11.863281c3.355469 0 6.070313 2.714844 6.070313 6.066406v3.863281c0 3.351563-2.714844 6.070313-6.070313 6.070313zm0 0"/></g><path d="m316 488h-296c-11.027344 0-20-8.972656-20-20v-448c0-11.027344 8.972656-20 20-20h296c11.027344 0 20 8.972656 20 20v448c0 11.027344-8.972656 20-20 20zm-296-480c-6.617188 0-12 5.382812-12 12v448c0 6.617188 5.382812 12 12 12h296c6.617188 0 12-5.382812 12-12v-448c0-6.617188-5.382812-12-12-12zm0 0" fill="#3762cc"/><path d="m264.425781 166.800781c.101563 0 .199219.027344.304688.03125-.082031-.003906-.160157-.03125-.242188-.03125zm0 0" fill="#a4c9ff"/><path d="m272.300781 114.050781c-.175781.011719-.34375.042969-.519531.054688 0-.03125.003906-.0625 0-.09375-.453125-9.234375-6.644531-16.773438-14.871094-19.230469 4.03125-8.742188 1.78125-19.46875-5.980468-25.664062.109374-.136719.230468-.257813.339843-.402344 6.320313-8.296875 4.859375-20.257813-3.261719-26.71875-8.125-6.457032-19.832031-4.964844-26.15625 3.332031-.109374.144531-.195312.296875-.300781.441406-.023437-.023437-.042969-.042969-.066406-.0625-9.027344-7.175781-22.035156-5.515625-29.058594 3.703125-1.953125 2.5625-3.214843 5.441406-3.855469 8.414063h19.773438c8.773438 0 16.625 5.5625 19.707031 13.953125l18.558594 50.554687h9.125c5.617187 0 10.164063 4.648438 10.164063 10.386719v34.261719c-.039063-.011719-.089844-.007813-.132813-.015625.730469.164062 1.40625.476562 2.007813.878906 3.863281-4.054688 6.152343-9.660156 5.863281-15.757812.175781-.007813.347656.007812.519531 0 10.28125-.527344 18.199219-9.464844 17.6875-19.964844-.511719-10.503906-9.261719-18.589844-19.542969-18.070313zm0 0" fill="#a4c9ff"/><path d="m93.488281 194.300781h-24.105469c-3.324218 0-6.015624-2.691406-6.015624-6.015625v-15.46875c0-3.320312 2.691406-6.015625 6.015624-6.015625h.078126v-34.085937c0-5.734375 4.550781-10.386719 10.164062-10.386719h9.128906l1.972656-5.375c-1.59375.644531-3.136718 1.480469-4.582031 2.5625-.101562-.148437-.183593-.300781-.285156-.445313-6.089844-8.476562-17.753906-10.308593-26.050781-4.089843-8.300782 6.21875-10.09375 18.132812-4.003906 26.613281.09375.132812.207031.253906.304687.382812-.042969.03125-.085937.054688-.125.082032-9.210937 6.902344-11.207031 20.121094-4.46875 29.539062-.144531.101563-.296875.1875-.4375.292969-8.296875 6.21875-10.089844 18.132813-4.003906 26.613281 6.089843 8.480469 17.753906 10.308594 26.050781 4.089844.144531-.105469.269531-.226562.40625-.335938.019531.023438.03125.050782.050781.078126 4.734375 6.59375 12.507813 9.550781 19.902344 8.371093v-16.40625zm0 0" fill="#a4c9ff"/></svg>