<svg height="486pt" viewBox="-4 0 486 486.8" width="486pt" xmlns="http://www.w3.org/2000/svg"><path d="m296.140625 188.464844h-157.25c-6.679687 0-12.09375 5.414062-12.09375 12.09375v229.824218l30.242187 45.25c2.992188 4.480469 8.023438 7.167969 13.410157 7.167969h137.785156v-282.242187c0-6.679688-5.414063-12.09375-12.09375-12.09375zm0 0" fill="#6bdddd"/><path d="m351.335938 281.199219h-43.101563v201.601562h-37.539063 80.640626c6.679687 0 12.09375-5.417969 12.09375-12.097656v-177.40625c0-6.679687-5.414063-12.097656-12.09375-12.097656zm0 0" fill="#6bdddd"/><path d="m363.429688 321.519531h40.320312v120.960938h-40.320312zm0 0" fill="#a4c9ff"/><path d="m411.453125 281.199219c-4.253906 0-7.703125 3.449219-7.703125 7.703125v186.195312c0 4.253906 3.449219 7.703125 7.703125 7.703125 2.984375 0 5.695313-1.722656 6.96875-4.417969l19.320313-40.929687c.507812-1.074219.773437-2.25.773437-3.441406v-104.027344c0-1.1875-.265625-2.363281-.773437-3.441406l-19.320313-40.929688c-1.273437-2.691406-3.984375-4.414062-6.96875-4.414062zm0 0" fill="#6bdddd"/><path d="m28.59375 349.070312v-40.316406h40.5v40.316406zm0 0" fill="#a4c9ff"/><path d="m195.921875 153.519531h40.320313v34.945313h-40.320313zm0 0" fill="#a4c9ff"/><path d="m278.578125 153.519531h-124.992187c-6.679688 0-12.097657-5.414062-12.097657-12.09375 0-6.683593 5.417969-12.097656 12.097657-12.097656h124.992187c6.679687 0 12.097656 5.414063 12.097656 12.097656 0 6.679688-5.417969 12.09375-12.097656 12.09375zm0 0" fill="#f9a7a7"/><path d="m28.59375 266.414062v124.992188c0 6.683594-5.414062 12.097656-12.097656 12.097656-6.679688 0-12.09375-5.414062-12.09375-12.097656v-124.992188c0-6.679687 5.414062-12.09375 12.09375-12.09375 6.683594 0 12.097656 5.414063 12.097656 12.09375zm0 0" fill="#f9a7a7"/><path d="m81.191406 228.785156c-6.679687 0-12.097656 5.414063-12.097656 12.09375v177.410156c0 6.679688 5.417969 12.09375 12.097656 12.09375h45.605469v-201.597656zm0 0" fill="#6bdddd"/><g fill="#3762cc"><path d="m411.453125 486.800781c-6.453125 0-11.703125-5.25-11.703125-11.703125v-28.617187h-32.320312v24.222656c0 8.875-7.21875 16.097656-16.09375 16.097656h-180.886719c-6.734375 0-12.992188-3.34375-16.734375-8.941406l-29.054688-43.476563h-43.46875c-8.878906 0-16.097656-7.21875-16.097656-16.09375v-177.410156c0-8.875 7.21875-16.09375 16.097656-16.09375h41.605469v-24.226562c0-8.875 7.21875-16.09375 16.09375-16.09375h157.25c8.875 0 16.09375 7.21875 16.09375 16.09375v76.640625h39.101563c8.875 0 16.097656 7.222656 16.097656 16.097656v24.222656h32.320312v-28.617187c0-6.453125 5.25-11.703125 11.703125-11.703125 4.507813 0 8.660157 2.636719 10.582031 6.710937l19.320313 40.925782c.757813 1.601562 1.15625 3.378906 1.15625 5.148437v104.027344c0 1.769531-.398437 3.546875-1.15625 5.148437l-19.320313 40.929688c-1.921874 4.074218-6.078124 6.710937-10.585937 6.710937zm-48.023437-48.320312h40.320312c2.207031 0 4 1.792969 4 4v32.617187c0 2.039063 1.660156 3.703125 3.703125 3.703125 1.425781 0 2.742187-.835937 3.351563-2.121093l19.320312-40.929688c.257812-.546875.386719-1.128906.386719-1.734375v-104.027344c0-.597656-.132813-1.195312-.386719-1.734375l-19.320312-40.929687c-.609376-1.289063-1.925782-2.125-3.351563-2.125-2.042969 0-3.703125 1.664062-3.703125 3.703125v32.617187c0 2.207031-1.792969 4-4 4h-40.320312c-2.207032 0-4-1.792969-4-4v-28.222656c0-4.464844-3.628907-8.097656-8.09375-8.097656h-43.101563c-2.207031 0-4-1.792969-4-4v-80.640625c0-4.460938-3.628906-8.09375-8.097656-8.09375h-157.246094c-4.460937 0-8.09375 3.632812-8.09375 8.09375v28.226562c0 2.207032-1.792969 4-4 4h-45.605469c-4.464844 0-8.097656 3.628906-8.097656 8.09375v177.410156c0 4.464844 3.632812 8.09375 8.097656 8.09375h45.605469c1.335937 0 2.582031.667969 3.324219 1.777344l30.246094 45.25c2.253906 3.375 6.023437 5.390625 10.085937 5.390625h180.886719c4.460937 0 8.09375-3.632812 8.09375-8.097656v-28.222656c-.003906-2.207031 1.789062-4 3.996094-4zm0 0"/><path d="m69.09375 353.070312h-40.5c-2.207031 0-4-1.789062-4-4v-40.316406c0-2.210937 1.792969-4 4-4h40.5c2.207031 0 4 1.789063 4 4v40.316406c0 2.210938-1.789062 4-4 4zm-36.5-8h32.5v-32.316406h-32.5zm0 0"/><path d="m236.242188 192.464844h-40.320313c-2.207031 0-4-1.792969-4-4v-34.945313c0-2.207031 1.792969-4 4-4h40.320313c2.207031 0 4 1.792969 4 4v34.945313c0 2.207031-1.792969 4-4 4zm-36.320313-8h32.316406v-26.945313h-32.316406zm0 0"/><path d="m278.578125 157.519531h-124.992187c-8.878907 0-16.097657-7.21875-16.097657-16.09375 0-8.878906 7.21875-16.097656 16.097657-16.097656h124.988281c8.878906 0 16.097656 7.21875 16.097656 16.097656 0 8.875-7.21875 16.09375-16.09375 16.09375zm-124.992187-24.191406c-4.464844 0-8.097657 3.632813-8.097657 8.097656 0 4.460938 3.632813 8.09375 8.097657 8.09375h124.988281c4.464843 0 8.097656-3.632812 8.097656-8.09375 0-4.464843-3.628906-8.097656-8.097656-8.097656zm0 0"/><path d="m16.496094 407.503906c-8.875 0-16.097656-7.21875-16.097656-16.097656v-124.992188c0-8.875 7.222656-16.09375 16.097656-16.09375s16.097656 7.21875 16.097656 16.09375v124.992188c0 8.878906-7.222656 16.097656-16.097656 16.097656zm0-149.183594c-4.464844 0-8.097656 3.632813-8.097656 8.09375v124.992188c0 4.464844 3.632812 8.097656 8.097656 8.097656s8.097656-3.632812 8.097656-8.097656v-124.992188c0-4.460937-3.632812-8.09375-8.097656-8.09375zm0 0"/><path d="m308.234375 486.800781h-137.785156c-6.734375 0-12.992188-3.34375-16.734375-8.941406l-30.242188-45.25c-.441406-.660156-.675781-1.433594-.675781-2.222656v-229.828125c0-8.875 7.222656-16.09375 16.097656-16.09375h157.246094c8.878906 0 16.097656 7.21875 16.097656 16.09375v282.242187c-.003906 2.207031-1.792969 4-4.003906 4zm-177.4375-57.628906 29.570313 44.238281c2.253906 3.375 6.023437 5.390625 10.082031 5.390625h133.785156v-278.242187c0-4.460938-3.628906-8.09375-8.09375-8.09375h-157.25c-4.460937 0-8.09375 3.632812-8.09375 8.09375zm0 0"/><path d="m411.453125 486.800781c-6.453125 0-11.703125-5.25-11.703125-11.707031v-186.191406c0-6.453125 5.25-11.703125 11.703125-11.703125 4.507813 0 8.664063 2.632812 10.585937 6.707031l19.320313 40.929688c.753906 1.601562 1.152344 3.378906 1.152344 5.148437v104.027344c0 1.769531-.398438 3.546875-1.152344 5.148437l-19.320313 40.929688c-1.921874 4.074218-6.078124 6.710937-10.585937 6.710937zm0-201.601562c-2.042969 0-3.703125 1.664062-3.703125 3.703125v186.195312c0 2.039063 1.660156 3.703125 3.703125 3.703125 1.425781 0 2.742187-.832031 3.351563-2.121093l19.320312-40.929688c.257812-.546875.386719-1.128906.386719-1.734375v-104.027344c0-.597656-.132813-1.195312-.386719-1.734375l-19.320312-40.929687c-.609376-1.292969-1.925782-2.125-3.351563-2.125zm0 0"/><path d="m351.335938 486.800781h-80.640626c-2.210937 0-4-1.792969-4-4s1.789063-4 4-4h33.539063v-197.601562c0-2.207031 1.792969-4 4-4h43.101563c8.875 0 16.097656 7.222656 16.097656 16.097656v177.40625c-.003906 8.875-7.222656 16.097656-16.097656 16.097656zm-39.101563-8h39.101563c4.464843 0 8.097656-3.632812 8.097656-8.097656v-177.40625c0-4.464844-3.632813-8.097656-8.097656-8.097656h-39.101563zm0 0"/></g><path d="m421.28125 90.957031h-22.300781v16.425781h27.539062c1.925781 0 3.769531-.898437 5.113281-2.484374l26.582032-31.394532c1.300781-1.535156 2.023437-3.589844 2.023437-5.726562v-12.746094h-13.449219v6.078125c0 1.585937-.539062 3.113281-1.503906 4.25l-20.226562 23.773437c-.992188 1.164063-2.355469 1.824219-3.777344 1.824219zm0 0" fill="#f9cfcf"/><path d="m426.519531 111.382812h-27.539062c-2.207031 0-4-1.792968-4-4v-16.425781c0-2.207031 1.792969-4 4-4h22.300781c.238281 0 .503906-.152343.730469-.417969l20.222656-23.773437c.355469-.414063.554687-1.019531.554687-1.660156v-6.074219c0-2.210938 1.789063-4 4-4h13.449219c2.210938 0 4 1.789062 4 4v12.742188c0 3.097656-1.054687 6.050781-2.96875 8.316406l-26.582031 31.390625c-2.09375 2.480469-5.074219 3.902343-8.167969 3.902343zm-23.535156-8h23.535156c.75 0 1.480469-.378906 2.066407-1.070312l26.578124-31.394531c.6875-.808594 1.078126-1.953125 1.078126-3.144531v-8.742188h-5.449219v2.074219c0 2.542969-.875 4.972656-2.457031 6.839843l-20.230469 23.777344c-1.75 2.054688-4.234375 3.234375-6.824219 3.234375h-18.296875zm0 0" fill="#3762cc"/><path d="m398.980469 20.199219v95.039062c0 3.578125-2.902344 6.480469-6.476563 6.480469h-25.921875c-3.578125 0-6.480469-2.902344-6.480469-6.480469v-95.039062zm0 0" fill="#f9a7a7"/><path d="m473.503906 35.984375v15.414063c0 3.796874-3.078125 6.875-6.875 6.875h-67.648437v-29.160157h67.648437c3.796875-.003906 6.875 3.074219 6.875 6.871094zm0 0" fill="#f9a7a7"/><path d="m398.980469 80.140625v-12.152344l23.238281-2.707031c2.425781-.28125 4.558594 1.613281 4.558594 4.058594 0 1.835937-1.226563 3.445312-2.996094 3.933594zm0 0" fill="#a4c9ff"/><path d="m392.503906 125.71875h-25.921875c-5.78125 0-10.480469-4.699219-10.480469-10.480469v-95.039062c0-2.207031 1.792969-4 4-4h38.878907c2.210937 0 4 1.792969 4 4v95.039062c.003906 5.78125-4.699219 10.480469-10.476563 10.480469zm-28.402344-101.519531v91.039062c0 1.371094 1.113282 2.480469 2.480469 2.480469h25.921875c1.367188 0 2.476563-1.109375 2.476563-2.480469v-91.039062zm0 0" fill="#3762cc"/><path d="m466.628906 62.269531h-67.644531c-2.207031 0-4-1.792969-4-4v-29.160156c0-2.207031 1.792969-4 4-4h67.644531c5.996094 0 10.875 4.878906 10.875 10.875v15.414063c0 5.992187-4.878906 10.871093-10.875 10.871093zm-63.644531-8h63.644531c1.585938 0 2.875-1.289062 2.875-2.875v-15.414062c0-1.582031-1.289062-2.871094-2.875-2.871094h-63.644531zm0 0" fill="#3762cc"/><path d="m398.984375 84.140625c-.867187 0-1.714844-.28125-2.421875-.816406-.996094-.757813-1.578125-1.933594-1.578125-3.183594v-12.152344c0-2.027343 1.519531-3.734375 3.539063-3.96875l23.234374-2.710937c2.296876-.273438 4.59375.460937 6.308594 1.992187 1.722656 1.535157 2.710938 3.734375 2.710938 6.039063 0 3.621094-2.4375 6.824218-5.925782 7.792968l-24.800781 6.863282c-.351562.097656-.710937.144531-1.066406.144531zm4-12.566406v3.308593l19.730469-5.460937zm0 0" fill="#3762cc"/><path d="m404.617188 8.859375v6.480469c0 2.683594-2.175782 4.859375-4.859376 4.859375h-38.878906c-2.683594 0-4.859375-2.175781-4.859375-4.859375v-6.480469c0-2.683594 2.175781-4.859375 4.859375-4.859375h38.878906c2.683594 0 4.859376 2.175781 4.859376 4.859375zm0 0" fill="#a4c9ff"/><path d="m399.757812 24.199219h-38.878906c-4.886718 0-8.859375-3.972657-8.859375-8.859375v-6.480469c0-4.886719 3.972657-8.859375 8.859375-8.859375h38.878906c4.882813 0 8.859376 3.972656 8.859376 8.859375v6.480469c0 4.886718-3.972657 8.859375-8.859376 8.859375zm-38.878906-16.199219c-.472656 0-.859375.386719-.859375.859375v6.480469c0 .472656.382813.859375.859375.859375h38.878906c.472657 0 .859376-.386719.859376-.859375v-6.480469c0-.472656-.382813-.859375-.859376-.859375zm0 0" fill="#3762cc"/><path d="m387.640625 194.648438h-16.199219c-1.789062 0-3.238281-2.121094-3.238281-4.742188v-20.546875c0-3.925781 2.175781-7.113281 4.859375-7.113281h12.960938c2.683593 0 4.859374 3.1875 4.859374 7.113281v20.546875c0 2.621094-1.449218 4.742188-3.242187 4.742188zm0 0" fill="#f9cfcf"/><path d="m387.644531 198.648438h-16.199219c-4.0625 0-7.242187-3.839844-7.242187-8.742188v-20.546875c0-6.230469 3.890625-11.113281 8.859375-11.113281h12.960938c4.964843 0 8.859374 4.882812 8.859374 11.113281v20.546875c0 4.902344-3.179687 8.742188-7.238281 8.742188zm-15.339843-8h14.480468c.050782-.183594.097656-.433594.097656-.742188v-20.546875c0-1.808594-.695312-2.855469-1.015624-3.113281h-12.648438c-.316406.257812-1.015625 1.308594-1.015625 3.113281v20.546875c0 .308594.042969.558594.101563.742188zm0 0" fill="#3762cc"/><path d="m379.542969 205.996094-56.5 115.523437h113zm0 0" fill="#e0ebfc"/><path d="m436.046875 325.523438c-1.539063 0-2.917969-.859376-3.597656-2.238282l-8.78125-17.980468c-.28125-.539063-.398438-1.121094-.421875-1.71875 0-1.523438.878906-2.960938 2.242187-3.621094 1.957031-.960938 4.417969-.101563 5.359375 1.839844l8.78125 17.960937c.480469.957031.542969 2.039063.199219 3.058594-.339844 1-1.058594 1.820312-2.019531 2.300781-.5625.257812-1.164063.398438-1.761719.398438zm-113.019531 0c-.597656 0-1.199219-.140626-1.738282-.398438-1.980468-.980469-2.800781-3.382812-1.839843-5.359375l7.558593-15.460937c.941407-1.921876 3.398438-2.78125 5.339844-1.820313 1.378906.660156 2.261719 2.078125 2.242188 3.621094 0 .597656-.125 1.179687-.402344 1.71875l-7.558594 15.460937c-.660156 1.378906-2.039062 2.238282-3.601562 2.238282zm16.359375-33.417969c-.617188 0-1.199219-.140625-1.757813-.402344-1.378906-.679687-2.261718-2.097656-2.242187-3.617187 0-.601563.140625-1.183594.402343-1.742188l8.800782-17.960938c.9375-1.9375 3.398437-2.777343 5.339844-1.839843 1.375.679687 2.257812 2.101562 2.238281 3.621093 0 .601563-.140625 1.179688-.398438 1.738282l-8.800781 17.960937c-.660156 1.378907-2.039062 2.242188-3.582031 2.242188zm79.082031-2.519531c-1.539062 0-2.921875-.863282-3.601562-2.242188l-8.777344-17.960938c-.261719-.558593-.402344-1.140624-.402344-1.738281-.019531-1.519531.859375-2.941406 2.242188-3.621093 1.9375-.960938 4.398437-.097657 5.339843 1.839843l8.796875 17.960938c.261719.558593.398438 1.140625.398438 1.738281 0 1.523438-.859375 2.941406-2.238282 3.621094-.558593.261718-1.136718.402344-1.757812.402344zm-61.519531-33.402344c-.601563 0-1.203125-.140625-1.742188-.417969-1.378906-.660156-2.257812-2.101563-2.238281-3.621094 0-.601562.121094-1.179687.398438-1.71875l8.78125-17.980469c.941406-1.921874 3.398437-2.78125 5.363281-1.839843 1.359375.679687 2.238281 2.097656 2.238281 3.617187 0 .621094-.140625 1.203125-.398438 1.742188l-8.800781 17.960937c-.664062 1.378907-2.082031 2.257813-3.601562 2.257813zm43.957031-2.519532c-1.539062 0-2.941406-.859374-3.601562-2.261718l-8.796876-17.957032c-.261718-.542968-.398437-1.121093-.398437-1.722656 0-1.539062.859375-2.957031 2.238281-3.617187 1.957032-.960938 4.398438-.101563 5.359375 1.820312l8.78125 17.976563c.261719.542968.398438 1.121094.398438 1.722656.023437 1.539062-.859375 2.960938-2.238281 3.617188-.539063.28125-1.140626.421874-1.742188.421874zm-26.378906-33.421874c-.339844 0-.679688-.039063-1-.117188l-.039063-.019531c-.140625-.042969-.261719-.082031-.398437-.121094-.101563-.039063-.203125-.101563-.320313-.140625-1.363281-.679688-2.242187-2.101562-2.242187-3.640625 0-.597656.140625-1.179687.421875-1.71875l5-10.242187c.679687-1.378907 2.058593-2.238282 3.597656-2.238282 1.542969 0 2.921875.859375 3.582031 2.238282l3.78125 7.722656c.28125.539062.398438 1.140625.417969 1.738281 0 1.519531-.878906 2.941406-2.238281 3.621094-1.679688.820312-3.820313.300781-4.941406-1.160157l-.082032-.101562.0625-.097656-.082031.058594v-.019532c-.019531 0-.019531-.019531-.019531-.019531l-.039063-.058594-.023437-.042969-.019532-.019531c-.058593-.078125-.097656-.140625-.140624-.21875-.019532-.058593-.058594-.101562-.078126-.160156l-.179687-.378906-1.421875 2.898437c-.65625 1.359375-2.078125 2.238282-3.597656 2.238282zm0 0" fill="#a4c9ff"/><path d="m373.0625 162.246094h12.960938c.570312 0 1.109374.171875 1.621093.4375v-40.898438h-16.199219v40.898438c.507813-.265625 1.046876-.4375 1.617188-.4375zm0 0" fill="#a4c9ff"/><path d="m387.644531 166.683594c-.621093 0-1.246093-.144532-1.816406-.4375h-12.566406c-1.226563.605468-2.699219.554687-3.871094-.15625-1.195313-.726563-1.949219-2.007813-1.949219-3.40625v-40.898438c0-2.210937 1.792969-4 4-4h16.203125c2.207031 0 4 1.789063 4 4v40.898438c0 1.398437-.730469 2.695312-1.925781 3.417968-.632812.386719-1.355469.582032-2.074219.582032zm-1.621093-.4375h.019531zm-10.582032-8h8.203125v-32.464844h-8.203125zm0 0" fill="#3762cc"/></svg>