<svg height="488pt" viewBox="0 -24 488.024 488" width="488pt" xmlns="http://www.w3.org/2000/svg"><path d="m52 104.011719h384v308h-384zm0 0" fill="#e0ebfc"/><path d="m4 103.984375h48v308.027344h-48zm0 0" fill="#f9cfcf"/><path d="m436 103.984375h48v308.027344h-48zm0 0" fill="#f9cfcf"/><path d="m52 416.011719h-48c-2.207031 0-4-1.792969-4-4v-308c0-2.207031 1.792969-4 4-4h48c2.207031 0 4 1.792969 4 4v308c0 2.207031-1.789062 4-4 4zm-44-8h40v-300h-40zm0 0" fill="#3762cc"/><path d="m484 416.011719h-48c-2.207031 0-4-1.792969-4-4v-308.027344c0-2.207031 1.792969-4 4-4h48c2.207031 0 4 1.792969 4 4v308.027344c0 2.207031-1.789062 4-4 4zm-44-8h40v-300.027344h-40zm0 0" fill="#3762cc"/><path d="m484.023438 104.011719h-480v-76c0-13.253907 10.746093-24 24-24h432c13.253906 0 24 10.746093 24 24zm0 0" fill="#f9a7a7"/><path d="m28.023438 68.011719v-28c0-6.628907 5.371093-12 12-12h408c6.628906 0 12 5.371093 12 12v28c0 6.628906-5.371094 12-12 12h-408c-6.625 0-12-5.371094-12-12zm0 0" fill="#ffea92"/><path d="m484.023438 108.011719h-480c-2.207032 0-4.0000005-1.792969-4.0000005-4v-76c0-15.441407 12.5625005-28.0000002 28.0000005-28.0000002h432c15.441406 0 28 12.5585932 28 28.0000002v76c0 2.207031-1.792969 4-4 4zm-476-8h472v-72c0-11.027344-8.972657-20-20-20h-432c-11.027344 0-20 8.972656-20 20zm0 0" fill="#3762cc"/><path d="m127 324.738281h18v18h-18zm0 0" fill="#4671c6"/><path d="m168.398438 364.339844h-64.796876c-5.964843 0-10.800781-4.835938-10.800781-10.800782 0-5.964843 4.835938-10.800781 10.800781-10.800781h64.796876c5.964843 0 10.800781 4.835938 10.800781 10.800781 0 5.964844-4.835938 10.800782-10.800781 10.800782zm0 0" fill="#f9a7a7"/><path d="m276.398438 364.339844h-64.796876c-5.964843 0-10.800781-4.835938-10.800781-10.800782 0-5.964843 4.835938-10.800781 10.800781-10.800781h64.796876c5.964843 0 10.800781 4.835938 10.800781 10.800781 0 5.964844-4.835938 10.800782-10.800781 10.800782zm0 0" fill="#f9a7a7"/><path d="m233.875 324.738281h18v18h-18zm0 0" fill="#4671c6"/><path d="m384.0625 364.113281h-64.800781c-5.964844 0-10.800781-4.835937-10.800781-10.800781s4.835937-10.800781 10.800781-10.800781h64.800781c5.964844 0 10.800781 4.835937 10.800781 10.800781s-4.835937 10.800781-10.800781 10.800781zm0 0" fill="#f9a7a7"/><g fill="#4671c6"><path d="m341.539062 324.511719h18v18h-18zm0 0"/><path d="m396.101562 378.738281h-304.203124c-3.972657 0-7.199219-3.222656-7.199219-7.199219 0-3.976562 3.226562-7.199218 7.199219-7.199218h304.203124c3.972657 0 7.199219 3.222656 7.199219 7.199218 0 3.976563-3.226562 7.199219-7.199219 7.199219zm0 0"/><path d="m127 378.738281h18v19.125h-18zm0 0"/><path d="m149.050781 412.261719h-26.101562c-3.976563 0-7.199219-3.222657-7.199219-7.199219s3.222656-7.199219 7.199219-7.199219h26.101562c3.976563 0 7.199219 3.222657 7.199219 7.199219s-3.222656 7.199219-7.199219 7.199219zm0 0"/><path d="m235 378.738281h18v19.125h-18zm0 0"/><path d="m257.050781 412.261719h-26.101562c-3.976563 0-7.199219-3.222657-7.199219-7.199219s3.222656-7.199219 7.199219-7.199219h26.101562c3.976563 0 7.199219 3.222657 7.199219 7.199219s-3.222656 7.199219-7.199219 7.199219zm0 0"/><path d="m342.660156 378.738281h18v19.125h-18zm0 0"/><path d="m364.710938 412.261719h-26.097657c-3.976562 0-7.203125-3.222657-7.203125-7.199219s3.226563-7.199219 7.203125-7.199219h26.097657c3.976562 0 7.199218 3.222657 7.199218 7.199219s-3.222656 7.199219-7.199218 7.199219zm0 0"/></g><path d="m298.875 167.199219c0 30.929687-25.074219 56-56 56-30.929688 0-56-25.070313-56-56 0-30.925781 25.070312-56 56-56 30.925781 0 56 25.074219 56 56zm0 0" fill="#ffea92"/><path d="m284.875 167.199219c0 23.195312-18.804688 42-42 42s-42-18.804688-42-42c0-23.195313 18.804688-42 42-42s42 18.804687 42 42zm0 0" fill="#a4c9ff"/><path d="m274 171.199219h-31.125c-2.195312 0-3.980469-1.765625-4-3.960938l-.339844-34.1875c-.019531-2.207031 1.753906-4.015625 3.960938-4.039062h.039062c2.191406 0 3.980469 1.765625 4 3.960937l.300782 30.226563h27.160156c2.210937 0 4 1.789062 4 4 0 2.207031-1.785156 4-3.996094 4zm0 0" fill="#3762cc"/><path d="m165.882812 324.738281h-62.015624c-5.742188 0-10.394532-4.652343-10.394532-10.390625v-39.773437c0-22 17.835938-39.835938 39.839844-39.835938h3.125c22.003906 0 39.839844 17.835938 39.839844 39.835938v39.773437c-.003906 5.738282-4.65625 10.390625-10.394532 10.390625zm0 0" fill="#f9a7a7"/><path d="m273.882812 324.738281h-62.015624c-5.742188 0-10.394532-4.652343-10.394532-10.390625v-39.773437c0-22 17.835938-39.835938 39.839844-39.835938h3.125c22.003906 0 39.839844 17.835938 39.839844 39.835938v39.773437c-.003906 5.738282-4.65625 10.390625-10.394532 10.390625zm0 0" fill="#f9a7a7"/><path d="m381.542969 324.511719h-62.015625c-5.738282 0-10.390625-4.652344-10.390625-10.390625v-39.769532c0-22.003906 17.835937-39.839843 39.835937-39.839843h3.128906c22 0 39.835938 17.835937 39.835938 39.839843v39.769532c0 5.738281-4.652344 10.390625-10.394531 10.390625zm0 0" fill="#f9a7a7"/><path d="m4 412.011719h480v16c0 4.417969-3.582031 8-8 8h-464c-4.417969 0-8-3.582031-8-8zm0 0" fill="#e0ebfc"/><path d="m476 440.011719h-464c-6.617188 0-12-5.382813-12-12v-16c0-2.207031 1.792969-4 4-4h480c2.207031 0 4 1.792969 4 4v16c0 6.617187-5.382812 12-12 12zm-468-24v12c0 2.207031 1.792969 4 4 4h464c2.207031 0 4-1.792969 4-4v-12zm0 0" fill="#3762cc"/><path d="m176.273438 280.636719h25.199218v21.601562h-25.199218zm0 0" fill="#4671c6"/><path d="m284.273438 280.636719h24.863281v21.601562h-24.863281zm0 0" fill="#4671c6"/></svg>