<svg height="488pt" viewBox="0 -18 488 488" width="488pt" xmlns="http://www.w3.org/2000/svg"><path d="m196.78125 4c-106.472656 0-192.78125 86.308594-192.78125 192.78125 0 106.46875 86.308594 192.777344 192.78125 192.777344 106.46875 0 192.777344-86.308594 192.777344-192.777344 0-106.472656-86.308594-192.78125-192.777344-192.78125zm0 304.59375c-61.65625 0-111.8125-50.160156-111.8125-111.8125 0-61.65625 50.15625-111.8125 111.8125-111.8125 61.652344 0 111.8125 50.160156 111.8125 111.8125s-50.160156 111.8125-111.8125 111.8125zm0 0" fill="#4671c6"/><path d="m196.78125 393.558594c-108.503906 0-196.78125-88.273438-196.78125-196.777344s88.277344-196.78125 196.78125-196.78125 196.78125 88.277344 196.78125 196.78125c-.003906 108.503906-88.277344 196.777344-196.78125 196.777344zm0-385.558594c-104.09375 0-188.78125 84.6875-188.78125 188.78125s84.6875 188.78125 188.78125 188.78125 188.78125-84.6875 188.78125-188.78125-84.6875-188.78125-188.78125-188.78125zm0 304.59375c-63.859375 0-115.8125-51.957031-115.8125-115.8125 0-63.859375 51.953125-115.816406 115.8125-115.816406s115.8125 51.957031 115.8125 115.8125c0 63.859375-51.957031 115.816406-115.8125 115.816406zm0-223.628906c-59.449219 0-107.8125 48.367187-107.8125 107.8125 0 59.445312 48.367188 107.8125 107.8125 107.8125s107.8125-48.367188 107.8125-107.8125c0-59.445313-48.367188-107.8125-107.8125-107.8125zm0 0" fill="#3762cc"/><path d="m308.59375 196.78125c0-6.875-.65625-13.589844-1.851562-20.125l-84.917969-4.921875-4.921875-84.917969c-6.53125-1.191406-13.25-1.847656-20.121094-1.847656s-13.585938.65625-20.121094 1.847656l-4.921875 84.917969-84.921875 4.921875c-1.191406 6.535156-1.847656 13.25-1.847656 20.125 0 6.871094.65625 13.589844 1.847656 20.121094l63.042969 3.652344-34.386719 52.855468c9.316406 9.878906 20.390625 18.085938 32.742188 24.070313l48.824218-58.84375 48.671876 58.65625c12.339843-6.03125 23.398437-14.277344 32.6875-24.203125l-34.199219-52.5625 62.542969-3.625c1.195312-6.53125 1.851562-13.25 1.851562-20.121094zm0 0" fill="#f9a7a7"/><path d="m148.207031 301.476562c-.585937 0-1.183593-.128906-1.742187-.398437-12.703125-6.148437-24.113282-14.539063-33.90625-24.925781-1.265625-1.34375-1.449219-3.375-.445313-4.925782l30.628907-47.078124-56.160157-3.253907c-1.84375-.105469-3.371093-1.457031-3.703125-3.273437-1.269531-6.949219-1.914062-13.960938-1.914062-20.84375 0-6.882813.644531-13.890625 1.914062-20.839844.332032-1.816406 1.859375-3.167969 3.707032-3.277344l81.363281-4.714844 4.710937-81.363281c.109375-1.84375 1.460938-3.371093 3.277344-3.703125 13.910156-2.542968 27.773438-2.542968 41.683594 0 1.8125.332032 3.167968 1.859375 3.273437 3.703125l4.714844 81.363281 81.363281 4.714844c1.84375.109375 3.375 1.460938 3.707032 3.277344 1.269531 6.957031 1.914062 13.96875 1.914062 20.839844s-.644531 13.878906-1.914062 20.839844c-.332032 1.816406-1.863282 3.171874-3.707032 3.277343l-55.664062 3.226563 30.441406 46.785156c1.003906 1.542969.824219 3.570312-.433594 4.914062-9.746094 10.417969-21.132812 18.851563-33.851562 25.066407-1.65625.804687-3.65625.378906-4.832032-1.039063l-45.59375-54.949218-45.75 55.132812c-.777343.941406-1.917968 1.445312-3.082031 1.445312zm-27.644531-28.5625c7.878906 7.902344 16.804688 14.464844 26.601562 19.5625l46.796876-56.394531c.757812-.917969 1.886718-1.445312 3.078124-1.445312 1.1875 0 2.316407.527343 3.078126 1.445312l46.628906 56.199219c9.804687-5.144531 18.714844-11.75 26.5625-19.675781l-32.464844-49.894531c-.777344-1.195313-.859375-2.714844-.214844-3.988282.644532-1.269531 1.914063-2.105468 3.335938-2.1875l59.363281-3.441406c.839844-5.464844 1.265625-10.941406 1.265625-16.3125 0-5.375-.425781-10.851562-1.265625-16.316406l-81.734375-4.734375c-2.027344-.121094-3.644531-1.738281-3.765625-3.765625l-4.734375-81.730469c-10.921875-1.679687-21.703125-1.679687-32.625 0l-4.738281 81.730469c-.117188 2.027344-1.734375 3.644531-3.761719 3.765625l-81.738281 4.734375c-.839844 5.457031-1.261719 10.929687-1.261719 16.3125 0 5.382812.421875 10.859375 1.261719 16.316406l59.859375 3.464844c1.421875.085937 2.695312.917968 3.339844 2.191406.640624 1.273438.558593 2.792969-.21875 3.984375zm186.179688-56.011718h.023437zm0 0" fill="#3762cc"/><path d="m196.78125 327.613281c-72.144531 0-130.835938-58.691406-130.835938-130.832031 0-72.144531 58.691407-130.835938 130.835938-130.835938 72.140625 0 130.832031 58.691407 130.832031 130.832032 0 72.144531-58.691406 130.835937-130.832031 130.835937zm0-239.046875c-59.667969 0-108.214844 48.542969-108.214844 108.210938 0 59.667968 48.546875 108.210937 108.214844 108.210937s108.210938-48.542969 108.210938-108.210937c0-59.667969-48.542969-108.210938-108.210938-108.210938zm0 0" fill="#e0ebfc"/><path d="m250.757812 196.78125c0 29.808594-24.167968 53.976562-53.976562 53.976562-29.8125 0-53.980469-24.167968-53.980469-53.976562 0-29.8125 24.167969-53.980469 53.980469-53.980469 29.808594 0 53.976562 24.167969 53.976562 53.980469zm0 0" fill="#f9a7a7"/><path d="m231.480469 196.78125c0 19.164062-15.535157 34.699219-34.699219 34.699219s-34.703125-15.535157-34.703125-34.699219 15.539063-34.703125 34.703125-34.703125 34.699219 15.539063 34.699219 34.703125zm0 0" fill="#6bdddd"/><g fill="#3762cc"><path d="m196.78125 254.757812c-31.96875 0-57.980469-26.011718-57.980469-57.976562 0-31.96875 26.011719-57.980469 57.980469-57.980469 31.964844 0 57.976562 26.011719 57.976562 57.980469 0 31.964844-26.011718 57.976562-57.976562 57.976562zm0-107.957031c-27.558594 0-49.980469 22.417969-49.980469 49.976563s22.421875 49.980468 49.980469 49.980468 49.976562-22.421874 49.976562-49.980468-22.417968-49.976563-49.976562-49.976563zm0 0"/><path d="m196.78125 235.480469c-21.339844 0-38.703125-17.363281-38.703125-38.703125 0-21.335938 17.363281-38.699219 38.703125-38.699219s38.699219 17.363281 38.699219 38.699219c0 21.34375-17.359375 38.703125-38.699219 38.703125zm0-69.402344c-16.929688 0-30.703125 13.773437-30.703125 30.703125 0 16.925781 13.773437 30.699219 30.703125 30.699219 16.925781 0 30.699219-13.773438 30.699219-30.699219 0-16.929688-13.773438-30.703125-30.699219-30.703125zm0 0"/><path d="m196.78125 331.617188c-74.347656 0-134.835938-60.488282-134.835938-134.835938s60.488282-134.835938 134.835938-134.835938 134.832031 60.488282 134.832031 134.835938-60.488281 134.835938-134.832031 134.835938zm0-261.671876c-69.9375 0-126.835938 56.898438-126.835938 126.835938s56.898438 126.835938 126.835938 126.835938c69.933594 0 126.832031-56.898438 126.832031-126.835938s-56.898437-126.835938-126.832031-126.835938zm0 239.046876c-61.878906 0-112.214844-50.339844-112.214844-112.210938 0-61.875 50.339844-112.214844 112.214844-112.214844 61.871094 0 112.210938 50.339844 112.210938 112.214844 0 61.871094-50.339844 112.210938-112.210938 112.210938zm0-216.425782c-57.464844 0-104.214844 46.75-104.214844 104.210938 0 57.460937 46.75 104.210937 104.214844 104.210937 57.460938 0 104.210938-46.75 104.210938-104.210937 0-57.460938-46.75-104.210938-104.210938-104.210938zm0 0"/></g><path d="m266.691406 268.113281c-2-2.644531-5.761718-3.164062-8.402344-1.164062l-10.949218 8.28125c-2.640625 2-3.160156 5.761719-1.164063 8.402343l5.015625 6.625c7.449219-4.355468 14.332032-9.570312 20.515625-15.515624zm0 0" fill="#f9cfcf"/><path d="m251.195312 294.257812c-1.21875 0-2.414062-.554687-3.191406-1.585937l-5.015625-6.625c-1.609375-2.128906-2.296875-4.757813-1.929687-7.40625.367187-2.644531 1.738281-4.988281 3.871094-6.597656l10.945312-8.285157c2.128906-1.613281 4.746094-2.300781 7.40625-1.933593 2.644531.367187 4.988281 1.742187 6.597656 3.871093l5.019532 6.628907c1.222656 1.617187 1.046874 3.894531-.417969 5.296875-6.433594 6.1875-13.589844 11.597656-21.269531 16.085937-.632813.371094-1.328126.550781-2.015626.550781zm10.710938-24.527343c-.328125 0-.773438.078125-1.203125.40625l-10.949219 8.285156c-.574218.433594-.730468 1.011719-.773437 1.316406-.042969.308594-.046875.90625.386719 1.476563l2.832031 3.75c4.996093-3.152344 9.730469-6.734375 14.136719-10.691406l-2.839844-3.75c-.433594-.574219-1.015625-.730469-1.316406-.773438-.074219-.007812-.167969-.019531-.273438-.019531zm0 0" fill="#3762cc"/><path d="m431 245.328125c-4.417969 0-8 3.582031-8 8v154c0 13.234375-10.765625 24-24 24h-156c-13.234375 0-24-10.765625-24-24v-116.375c0-2.597656 1.265625-5.042969 3.386719-6.539063l20.789062-14.675781 4.46875 6.136719c.21875-.226562.441407-.449219.699219-.644531l10.945312-8.285157c.367188-.273437.753907-.492187 1.15625-.671874l-8.976562-12.324219c-2.578125-3.535157-7.515625-4.347657-11.082031-1.824219l-27.226563 19.21875c-6.359375 4.488281-10.15625 11.820312-10.15625 19.609375v116.375c0 22.054687 17.941406 40 40 40h156c22.054688 0 40-17.945313 40-40v-154c-.003906-4.417969-3.585937-8-8.003906-8zm0 0" fill="#ffea92"/><path d="m399 451.328125h-156c-24.261719 0-44-19.738281-44-44v-116.375c0-9.085937 4.433594-17.640625 11.855469-22.878906l27.222656-19.214844c5.3125-3.765625 12.773437-2.539063 16.621094 2.734375l8.976562 12.324219c.707031.972656.941407 2.210937.632813 3.375-.304688 1.164062-1.117188 2.128906-2.210938 2.625-.171875.074219-.300781.148437-.398437.222656l-10.941407 8.285156c-.078124.0625-.15625.148438-.234374.234375-.820313.851563-1.953126 1.289063-3.15625 1.210938-1.175782-.082032-2.257813-.679688-2.957032-1.636719l-2.148437-2.949219-17.566407 12.398438c-1.0625.75-1.695312 1.96875-1.695312 3.269531v116.375c0 11.03125 8.972656 20 20 20h156c11.027344 0 20-8.96875 20-20v-153.996094c0-6.617187 5.382812-12 12-12s12 5.382813 12 12v153.996094c0 24.261719-19.738281 44-44 44zm-154.011719-196.664063c-.796875 0-1.597656.234376-2.289062.726563l-27.234375 19.21875c-5.300782 3.742187-8.464844 9.851563-8.464844 16.34375v116.375c0 19.851563 16.148438 36 36 36h156c19.851562 0 36-16.148437 36-36v-154c0-2.203125-1.792969-4-4-4s-4 1.796875-4 4v154c0 15.441406-12.558594 28-28 28h-156c-15.441406 0-28-12.558594-28-28v-116.375c0-3.894531 1.898438-7.558594 5.078125-9.804687l20.792969-14.675782c1.785156-1.261718 4.25-.851562 5.539062.914063l2.015625 2.765625 6.378907-4.828125-6.570313-9.019531c-.78125-1.070313-2.007813-1.640626-3.246094-1.640626zm0 0" fill="#3762cc"/><path d="m442.828125 267.328125h-24c-2.207031 0-4-1.789063-4-4v-12c0-2.207031 1.792969-4 4-4h24c2.210937 0 4 1.792969 4 4v12c0 2.210937-1.789063 4-4 4zm0 0" fill="#b9befc"/><path d="m442.828125 271.328125h-24c-4.410156 0-8-3.585937-8-8v-12c0-4.410156 3.589844-8 8-8h24c4.414063 0 8 3.589844 8 8v12c0 4.414063-3.585937 8-8 8zm-24-20v12h24.007813l-.007813-12zm0 0" fill="#3762cc"/><path d="m484 197.195312c0 29.824219-24.175781 54-54 54s-54-24.175781-54-54c0-29.824218 24.175781-54 54-54s54 24.175782 54 54zm0 0" fill="#b9befc"/><path d="m468 197.195312c0 20.988282-17.011719 38-38 38s-38-17.011718-38-38c0-20.984374 17.011719-38 38-38s38 17.015626 38 38zm0 0" fill="#e0ebfc"/><path d="m416.1875 195.007812c.066406-.421874.152344-.835937.257812-1.246093.035157-.144531.070313-.289063.109376-.425781.3125-1.09375.753906-2.128907 1.3125-3.09375.039062-.066407.082031-.136719.125-.207032.265624-.4375.550781-.863281.859374-1.269531.03125-.042969.0625-.089844.101563-.136719 1.085937-1.394531 2.425781-2.578125 3.953125-3.480468l-8.109375-13.769532h-.003906c-8.835938 5.226563-14.792969 14.828125-14.792969 25.816406h16c0-.578124.046875-1.148437.117188-1.710937.015624-.160156.046874-.316406.070312-.476563zm0 0" fill="#6bdddd"/><path d="m430 167.195312c-5.550781 0-10.738281 1.542969-15.207031 4.183594l8.109375 13.769532h.003906c2.082031-1.234376 4.503906-1.953126 7.09375-1.953126 7.71875 0 14 6.28125 14 14h16c0-16.542968-13.457031-30-30-30zm0 0" fill="#ffea92"/><path d="m445.203125 171.378906-8.109375 13.769532c1.527344.90625 2.871094 2.085937 3.953125 3.484374.035156.042969.066406.089844.101563.136719.308593.40625.59375.828125.859374 1.265625.039063.070313.085938.140625.125.207032.554688.964843.996094 2 1.3125 3.09375.039063.140624.074219.285156.109376.425781.101562.410156.1875.824219.253906 1.246093.027344.15625.054687.316407.074218.476563.066407.5625.113282 1.128906.113282 1.710937h16c.003906-10.988281-5.953125-20.589843-14.792969-25.816406zm0 0" fill="#f9a7a7"/><path d="m430 219.078125c-2.207031 0-4-1.789063-4-4v-41.941406c0-2.207031 1.792969-4 4-4s4 1.792969 4 4v41.941406c0 2.210937-1.792969 4-4 4zm0 0" fill="#3762cc"/><path d="m430 255.195312c-31.980469 0-58-26.019531-58-58 0-31.980468 26.019531-58 58-58s58 26.019532 58 58c0 31.980469-26.019531 58-58 58zm0-108c-27.570312 0-50 22.429688-50 50 0 27.570313 22.429688 50 50 50s50-22.429687 50-50c0-27.570312-22.429688-50-50-50zm0 0" fill="#3762cc"/><path d="m430 239.199219c-23.15625 0-42-18.84375-42-42 0-23.160157 18.84375-42 42-42s42 18.839843 42 42c0 23.15625-18.84375 42-42 42zm0-76c-18.746094 0-34 15.25-34 34 0 18.746093 15.253906 34 34 34s34-15.253907 34-34c0-18.75-15.253906-34-34-34zm0 0" fill="#3762cc"/></svg>