<svg height="488pt" viewBox="-46 0 488 488.32" width="488pt" xmlns="http://www.w3.org/2000/svg"><path d="m153.730469 364.265625h150.65625c2.414062 0 4.761719.246094 7.0625.632813v-250.160157h-164.78125v250.160157c2.304687-.382813 4.652343-.632813 7.0625-.632813zm0 0" fill="#f9cfcf"/><path d="m33.886719 101.117188c-6.742188 14.738281-17.929688 27.015624-31.851563 35.128906-2.5 1.457031-2.5 4.988281 0 6.445312 13.921875 8.109375 25.109375 20.390625 31.851563 35.128906 1.3125 2.863282 5.390625 2.863282 6.703125 0 6.742187-14.738281 17.929687-27.019531 31.855468-35.128906 2.496094-1.457031 2.496094-4.988281 0-6.445312-13.925781-8.113282-25.113281-20.390625-31.855468-35.128906-1.3125-2.863282-5.390625-2.863282-6.703125 0zm0 0" fill="#ffea92"/><path d="m84.8125 56.464844c-4.722656 10.316406-12.554688 18.910156-22.300781 24.589844-1.746094 1.019531-1.746094 3.492187 0 4.511718 9.746093 5.675782 17.578125 14.273438 22.300781 24.589844.917969 2.003906 3.773438 2.003906 4.6875 0 4.722656-10.316406 12.550781-18.910156 22.300781-24.589844 1.746094-1.019531 1.746094-3.492187 0-4.511718-9.75-5.679688-17.578125-14.273438-22.300781-24.589844-.914062-2.007813-3.769531-2.007813-4.6875 0zm0 0" fill="#ffea92"/><path d="m351.871094 484.316406h-245.625c-3.675782 0-6.65625-2.976562-6.65625-6.65625v-17.285156c0-3.679688 2.980468-6.660156 6.65625-6.660156h245.625c3.679687 0 6.660156 2.980468 6.660156 6.660156v17.285156c0 3.679688-2.980469 6.65625-6.660156 6.65625zm0 0" fill="#4671c6"/><path d="m351.871094 488.320312h-245.625c-5.875 0-10.65625-4.78125-10.65625-10.660156v-17.285156c0-5.875 4.78125-10.65625 10.65625-10.65625h245.625c5.875 0 10.660156 4.78125 10.660156 10.65625v17.285156c0 5.878906-4.78125 10.660156-10.660156 10.660156zm-245.625-30.605468c-1.464844 0-2.65625 1.191406-2.65625 2.660156v17.285156c0 1.464844 1.191406 2.65625 2.65625 2.65625h245.625c1.464844 0 2.660156-1.191406 2.660156-2.65625v-17.285156c0-1.46875-1.195312-2.660156-2.660156-2.660156zm0 0" fill="#3762cc"/><path d="m165.5 88.746094h18.832031v25.996094h-18.832031zm0 0" fill="#e0ebfc"/><path d="m273.785156 88.746094h18.832032v25.996094h-18.832032zm0 0" fill="#e0ebfc"/><path d="m184.332031 118.742188h-18.832031c-2.207031 0-4-1.792969-4-4v-26c0-2.207032 1.792969-4 4-4h18.832031c2.210938 0 4 1.792968 4 4v25.996093c0 2.210938-1.789062 4.003907-4 4.003907zm-14.832031-8h10.832031v-17.996094h-10.832031zm0 0" fill="#3762cc"/><path d="m292.617188 118.742188h-18.832032c-2.207031 0-4-1.792969-4-4v-26c0-2.207032 1.792969-4 4-4h18.832032c2.207031 0 4 1.792968 4 4v25.996093c0 2.210938-1.789063 4.003907-4 4.003907zm-14.832032-8h10.832032v-17.996094h-10.832032zm0 0" fill="#3762cc"/><path d="m294.972656 88.746094h-131.824218c-13 0-23.539063-10.539063-23.539063-23.539063v-37.664062c0-13 10.539063-23.539063 23.539063-23.539063h131.824218c13 0 23.539063 10.539063 23.539063 23.539063v37.664062c0 13-10.539063 23.539063-23.539063 23.539063zm0 0" fill="#4671c6"/><path d="m294.972656 92.742188h-131.824218c-15.183594 0-27.539063-12.351563-27.539063-27.539063v-37.664063c0-15.183593 12.355469-27.539062 27.539063-27.539062h131.824218c15.1875 0 27.539063 12.355469 27.539063 27.539062v37.664063c0 15.1875-12.355469 27.539063-27.539063 27.539063zm-131.824218-84.742188c-10.773438 0-19.539063 8.765625-19.539063 19.539062v37.664063c0 10.773437 8.765625 19.539063 19.539063 19.539063h131.824218c10.773438 0 19.539063-8.765626 19.539063-19.539063v-37.664063c0-10.773437-8.765625-19.539062-19.539063-19.539062zm0 0" fill="#3762cc"/><path d="m346.757812 453.714844h-235.398437v-47.078125c0-23.402344 18.96875-42.371094 42.371094-42.371094h150.65625c23.402343 0 42.371093 18.96875 42.371093 42.371094zm0 0" fill="#f9a7a7"/><path d="m346.757812 457.714844h-235.398437c-2.207031 0-4-1.789063-4-4v-47.078125c0-25.570313 20.800781-46.371094 46.371094-46.371094h150.65625c25.570312 0 46.371093 20.800781 46.371093 46.371094v47.078125c0 2.210937-1.789062 4-4 4zm-231.398437-8h227.398437v-43.078125c0-21.160157-17.210937-38.371094-38.371093-38.371094h-150.65625c-21.15625 0-38.371094 17.210937-38.371094 38.371094zm0 0" fill="#3762cc"/><path d="m231.414062 217.777344h-52.164062c-2.746094 0-4.96875 2.226562-4.96875 4.96875v10.199218c0 1.910157.550781 3.777344 1.585938 5.382813l18.777343 29.128906 11.308594 19.347657h50.917969l11.308594-19.347657 18.777343-29.128906c1.035157-1.601563 1.585938-3.472656 1.585938-5.382813v-10.199218c0-2.742188-2.226563-4.96875-4.96875-4.96875zm0 0" fill="#b9befc"/><path d="m256.875 290.800781h-50.921875c-1.421875 0-2.734375-.753906-3.453125-1.980469l-11.304688-19.34375-18.691406-28.980468c-1.453125-2.257813-2.21875-4.867188-2.21875-7.550782v-10.199218c0-4.945313 4.019532-8.96875 8.964844-8.96875h104.328125c4.949219 0 8.96875 4.023437 8.96875 8.96875v10.199218c0 2.6875-.765625 5.296876-2.222656 7.550782l-18.777344 29.128906-11.21875 19.195312c-.714844 1.226563-2.03125 1.980469-3.453125 1.980469zm-48.628906-8h46.332031l10.152344-17.363281 18.867187-29.277344c.621094-.960937.949219-2.074218.949219-3.214844v-10.203124c0-.53125-.433594-.964844-.96875-.964844h-104.328125c-.53125 0-.964844.433594-.964844.964844v10.203124c0 1.144532.328125 2.253907.945313 3.214844l18.78125 29.128906zm0 0" fill="#3762cc"/><path d="m256.773438 303.296875h-50.714844c-2.746094 0-4.96875-2.222656-4.96875-4.96875v-6.554687c0-2.746094 2.222656-4.96875 4.96875-4.96875h50.714844c2.742187 0 4.964843 2.222656 4.964843 4.96875v6.554687c0 2.742187-2.222656 4.96875-4.964843 4.96875zm0 0" fill="#b9befc"/><path d="m256.773438 307.296875h-50.714844c-4.945313 0-8.96875-4.023437-8.96875-8.96875v-6.558594c0-4.945312 4.023437-8.96875 8.96875-8.96875h50.714844c4.945312 0 8.964843 4.023438 8.964843 8.96875v6.558594c0 4.945313-4.019531 8.96875-8.964843 8.96875zm-50.714844-16.496094c-.535156 0-.96875.433594-.96875.96875v6.558594c0 .535156.433594.96875.96875.96875h50.714844c.53125 0 .964843-.433594.964843-.96875v-6.558594c0-.535156-.433593-.96875-.964843-.96875zm0 0" fill="#3762cc"/><path d="m214.027344 303.296875v21.867187c0 2.746094 2.222656 4.96875 4.964844 4.96875h24.839843c2.746094 0 4.96875-2.222656 4.96875-4.96875v-21.867187zm0 0" fill="#f9a7a7"/><path d="m243.832031 334.132812h-24.839843c-4.945313 0-8.964844-4.019531-8.964844-8.96875v-21.867187c0-2.207031 1.789062-4 4-4h34.773437c2.207031 0 4 1.792969 4 4v21.867187c.003907 4.949219-4.019531 8.96875-8.96875 8.96875zm-25.804687-26.835937v17.867187c0 .535157.433594.96875.964844.96875h24.839843c.535157 0 .96875-.433593.96875-.96875v-17.867187zm0 0" fill="#3762cc"/><path d="m111.359375 453.714844v-47.078125c0-17.128907 10.183594-31.847657 24.808594-38.527344l-.851563-4.839844c-4.261718-24.167969-27.3125-40.308593-51.480468-36.046875l-3.390626.597656c-9.804687 1.730469-16.355468 11.078126-14.625 20.886719l15.921876 90.296875c1.894531 10.742188 12.136718 17.917969 22.878906 16.023438l7.429687-1.3125zm0 0" fill="#a4c9ff"/><path d="m101.144531 459.332031c-4.832031 0-9.535156-1.472656-13.574219-4.300781-5.195312-3.640625-8.664062-9.085938-9.765624-15.332031l-15.921876-90.296875c-2.109374-11.960938 5.90625-23.410156 17.871094-25.519532l3.386719-.597656c12.75-2.246094 25.597656.601563 36.195313 8.023438 10.601562 7.421875 17.675781 18.527344 19.921874 31.265625l.851563 4.835937c.316406 1.796875-.621094 3.578125-2.277344 4.335938-13.652343 6.234375-22.472656 19.929687-22.472656 34.886718v44.835938c.371094.546875.613281 1.195312.675781 1.898438.179688 2.066406-1.25 3.925781-3.292968 4.285156l-7.425782 1.3125c-1.390625.246094-2.789062.367187-4.171875.367187zm-9.507812-128.792969c-2.359375 0-4.734375.203126-7.105469.625l-3.390625.597657c-7.617187 1.34375-12.722656 8.632812-11.378906 16.253906l15.921875 90.292969c.730468 4.144531 3.03125 7.753906 6.476562 10.167968 3.449219 2.414063 7.625 3.339844 11.769532 2.609376l3.433593-.605469v-43.84375c0-17.039063 9.460938-32.71875 24.351563-40.773438l-.332032-1.898437c-1.878906-10.636719-7.785156-19.90625-16.632812-26.101563-6.875-4.816406-14.890625-7.324219-23.113281-7.324219zm0 0" fill="#3762cc"/><path d="m377.140625 327.820312-3.390625-.597656c-24.167969-4.261718-47.21875 11.878906-51.480469 36.050782l-.8125 4.597656c14.890625 6.570312 25.300781 21.441406 25.300781 38.765625v47.078125h-1.222656l7.429688 1.3125c10.742187 1.894531 20.984375-5.28125 22.878906-16.023438l15.921875-90.296875c1.730469-9.804687-4.816406-19.15625-14.625-20.886719zm0 0" fill="#a4c9ff"/><path d="m356.445312 459.332031c-1.386718 0-2.78125-.121093-4.171874-.367187l-7.429688-1.3125c-2.039062-.359375-3.46875-2.21875-3.289062-4.285156.085937-.996094.535156-1.882813 1.207031-2.53125v-44.203126c0-15.183593-8.996094-28.960937-22.914063-35.101562-1.683594-.746094-2.644531-2.542969-2.324218-4.355469l.808593-4.601562c4.640625-26.300781 29.824219-43.925781 56.117188-39.289063l3.386719.597656c11.964843 2.109376 19.980468 13.558594 17.871093 25.519532l-15.921875 90.296875c-1.101562 6.246093-4.570312 11.691406-9.765625 15.332031-4.039062 2.828125-8.746093 4.300781-13.574219 4.300781zm-5.6875-8.757812 2.902344.511719c4.148438.730468 8.324219-.195313 11.769532-2.609376 3.445312-2.414062 5.746093-6.023437 6.476562-10.167968l15.921875-90.292969c1.34375-7.621094-3.761719-14.910156-11.378906-16.253906l-3.390625-.597657c-21.960938-3.875-42.976563 10.84375-46.847656 32.800782l-.289063 1.625c15.1875 7.96875 24.835937 23.753906 24.835937 41.046875zm0 0" fill="#3762cc"/><path d="m311.449219 368.867188c-.222657 0-.449219-.015626-.667969-.054688-2.132812-.363281-4.285156-.546875-6.390625-.546875h-150.65625c-2.121094 0-4.269531.183594-6.390625.546875-1.160156.203125-2.351562-.125-3.25-.882812-.902344-.761719-1.421875-1.878907-1.421875-3.058594v-250.128906c0-2.207032 1.792969-4 4-4h164.78125c2.207031 0 4 1.792968 4 4v250.125c0 1.179687-.519531 2.296874-1.417969 3.058593-.730468.613281-1.648437.941407-2.585937.941407zm-157.71875-8.601563h150.65625c1.015625 0 2.039062.035156 3.0625.101563v-241.625h-156.78125v241.628906c1.027343-.070313 2.046875-.105469 3.0625-.105469zm0 0" fill="#3762cc"/><path d="m135.316406 363.273438.851563 4.835937v.003906c3.300781-1.507812 6.820312-2.613281 10.5-3.242187v-250.132813c-26 0-47.078125 21.078125-47.078125 47.082031v165.453126c17.730468 3.265624 32.410156 17.199218 35.726562 36zm0 0" fill="#a4c9ff"/><path d="m321.46875 367.878906c-.003906-.003906-.003906-.003906-.007812-.003906l.8125-4.601562c3.347656-18.984376 18.289062-33.007813 36.257812-36.089844v-165.363282c0-26.003906-21.078125-47.082031-47.078125-47.082031v250.128907c3.5.597656 6.859375 1.617187 10.015625 3.011718zm0 0" fill="#a4c9ff"/><path d="m136.167969 372.113281c-.640625 0-1.28125-.15625-1.863281-.460937-1.09375-.578125-1.863282-1.628906-2.078126-2.847656l-.847656-4.835938c-2.917968-16.550781-15.984375-29.714844-32.511718-32.757812-1.898438-.347657-3.277344-2.003907-3.277344-3.933594v-165.457032c0-28.164062 22.914062-51.078124 51.078125-51.078124 2.210937 0 4 1.792968 4 4v250.125c0 1.949218-1.402344 3.613281-3.324219 3.941406-3.269531.5625-6.472656 1.550781-9.515625 2.9375-.527344.246094-1.09375.367187-1.660156.367187zm-32.578125-48.050781c18.230468 4.699219 32.367187 19.796875 35.664062 38.515625l.003906.027344c1.125-.371094 2.261719-.699219 3.410157-.984375v-242.695313c-21.886719 2.023438-39.082031 20.488281-39.082031 42.894531v162.242188zm0 0" fill="#3762cc"/><path d="m321.472656 371.878906c-.324218 0-.648437-.039062-.972656-.121094-.21875-.054687-.4375-.128906-.644531-.222656-2.894531-1.273437-5.945313-2.191406-9.074219-2.726562-1.921875-.328125-3.332031-1.992188-3.332031-3.941406v-250.125c0-2.207032 1.792969-4 4-4 28.167969 0 51.082031 22.914062 51.082031 51.078124v165.363282c0 1.945312-1.40625 3.613281-3.324219 3.941406-16.78125 2.875-30.042969 16.074219-32.996093 32.839844l-.761719 4.3125c-.03125.296875-.09375.601562-.195313.898437-.566406 1.648438-2.109375 2.703125-3.78125 2.703125zm-6.023437-10.261718c.976562.242187 1.949219.515624 2.90625.816406 3.390625-18.898438 17.710937-33.984375 36.175781-38.503906v-162.109376c0-22.40625-17.195312-40.871093-39.082031-42.894531zm0 0" fill="#3762cc"/><path d="m301.398438 200.125h-139.972657c-5.246093 0-9.5 4.253906-9.5 9.503906v10.804688c0 5.246094 4.253907 9.5 9.5 9.5h12.855469v-7.1875c0-2.742188 2.222656-4.96875 4.96875-4.96875h104.328125c2.742187 0 4.96875 2.226562 4.96875 4.96875v7.1875h12.851563c5.25 0 9.503906-4.253906 9.503906-9.5v-10.804688c0-5.25-4.253906-9.503906-9.503906-9.503906zm0 0" fill="#6bdddd"/><path d="m301.398438 233.933594h-12.851563c-2.210937 0-4-1.792969-4-4v-7.1875c0-.535156-.433594-.96875-.96875-.96875h-104.328125c-.535156 0-.96875.433594-.96875.96875v7.1875c0 2.207031-1.792969 4-4 4h-12.855469c-7.445312 0-13.5-6.054688-13.5-13.5v-10.804688c0-7.445312 6.054688-13.503906 13.5-13.503906h139.972657c7.445312 0 13.503906 6.058594 13.503906 13.503906v10.804688c0 7.445312-6.058594 13.5-13.503906 13.5zm-8.851563-8h8.851563c3.035156 0 5.503906-2.46875 5.503906-5.5v-10.804688c0-3.035156-2.46875-5.503906-5.503906-5.503906h-139.972657c-3.03125 0-5.5 2.46875-5.5 5.503906v10.804688c0 3.03125 2.46875 5.5 5.5 5.5h8.855469v-3.1875c0-4.945313 4.023438-8.96875 8.96875-8.96875h104.328125c4.945313 0 8.96875 4.023437 8.96875 8.96875zm0 0" fill="#3762cc"/><path d="m221.476562 330.136719h19.871094v154.183593h-19.871094zm0 0" fill="#e0ebfc"/><path d="m241.351562 488.320312h-19.871093c-2.207031 0-4-1.792968-4-4v-154.183593c0-2.207031 1.792969-4 4-4h19.871093c2.207032 0 4 1.792969 4 4v154.183593c0 2.207032-1.792968 4-4 4zm-15.875-8h11.871094v-146.183593h-11.871094zm0 0" fill="#3762cc"/></svg>