<svg height="488pt" viewBox="0 -10 488 488" width="488pt" xmlns="http://www.w3.org/2000/svg"><path d="m428.753906 240.066406h-365.90625l43.015625-116.390625c7.140625-19.320312 25.34375-32.121093 45.679688-32.121093h188.511719c20.335937 0 38.542968 12.800781 45.679687 32.121093zm0 0" fill="#4671c6"/><path d="m100.480469 208.734375 28.222656-76.367187c3.570313-9.65625 12.671875-16.058594 22.839844-16.058594h188.511719c10.167968 0 19.269531 6.402344 22.839843 16.0625l28.222657 76.363281c1.175781 3.183594-1.144532 6.582031-4.492188 6.582031h-281.648438c-3.351562 0-5.671874-3.398437-4.496093-6.582031zm0 0" fill="#e0ebfc"/><path d="m230.003906 147.757812h-14.507812c-2.207032 0-3.996094-1.789062-3.996094-3.996093s1.789062-3.996094 3.996094-3.996094h14.507812c2.207032 0 3.996094 1.792969 3.996094 3.996094 0 2.207031-1.789062 3.996093-3.996094 3.996093zm0 0" fill="#a4c9ff"/><path d="m316.234375 124.765625h-71.878906c-4.144531 0-7.5 3.359375-7.5 7.5 0 4.144531 3.355469 7.5 7.5 7.5h35.714843c2.207032 0 4 1.792969 4 4 0 2.210937-1.792968 4-4 4h-19.714843c-4.144531 0-7.5 3.359375-7.5 7.5 0 4.144531 3.355469 7.5 7.5 7.5h39.714843c2.207032 0 4 1.792969 4 4 0 2.210937-1.792968 4-4 4h-55.714843c-4.144531 0-7.5 3.359375-7.5 7.5 0 4.144531 3.355469 7.5 7.5 7.5h43.714843c2.207032 0 4 1.792969 4 4 0 2.210937-1.792968 4-4 4h-27.714843c-4.144531 0-7.5 3.359375-7.5 7.5 0 4.144531 3.355469 7.5 7.5 7.5h55.878906zm0 0" fill="#a4c9ff"/><path d="m428.753906 244.066406h-365.90625c-1.308594 0-2.535156-.640625-3.285156-1.714844-.746094-1.074218-.921875-2.445312-.464844-3.671874l43.011719-116.390626c7.679687-20.773437 27.546875-34.734374 49.433594-34.734374h188.515625c21.886718 0 41.753906 13.957031 49.433594 34.734374l43.015624 116.390626c.453126 1.230468.277344 2.601562-.46875 3.671874-.75 1.074219-1.980468 1.714844-3.285156 1.714844zm-360.164062-8h354.421875l-41.027344-111.003906c-6.523437-17.648438-23.371094-29.507812-41.929687-29.507812h-188.511719c-18.554688 0-35.40625 11.859374-41.929688 29.507812zm0 0" fill="#3762cc"/><path d="m470.101562 405.773438h-452.203124c-7.675782 0-13.898438-6.222657-13.898438-13.898438v-35.519531c0-7.675781 6.222656-13.898438 13.898438-13.898438h452.203124c7.675782 0 13.894532 6.222657 13.894532 13.898438v35.519531c.003906 7.675781-6.21875 13.898438-13.894532 13.898438zm0 0" fill="#6bdddd"/><path d="m470.101562 409.773438h-452.203124c-9.871094 0-17.898438-8.03125-17.898438-17.898438v-35.519531c0-9.871094 8.03125-17.898438 17.898438-17.898438h452.203124c9.871094 0 17.898438 8.03125 17.898438 17.898438v35.519531c0 9.867188-8.03125 17.898438-17.898438 17.898438zm-452.203124-63.320313c-5.457032 0-9.898438 4.441406-9.898438 9.898437v35.519532c0 5.460937 4.441406 9.898437 9.898438 9.898437h452.203124c5.457032 0 9.898438-4.4375 9.898438-9.898437v-35.519532c0-5.457031-4.441406-9.898437-9.898438-9.898437zm0 0" fill="#3762cc"/><path d="m73.824219 405.773438v43.78125c0 7.730468 6.179687 14 13.796875 14h39.601562c7.621094 0 13.800782-6.269532 13.800782-14v-43.78125zm0 0" fill="#f9a7a7"/><path d="m127.222656 467.554688h-39.597656c-9.816406 0-17.800781-8.074219-17.800781-18v-43.78125c0-2.207032 1.792969-4 4-4h67.203125c2.207031 0 4 1.792968 4 4v43.78125c-.003906 9.925781-7.988282 18-17.804688 18zm-49.398437-57.78125v39.78125c0 5.511718 4.394531 10 9.796875 10h39.601562c5.402344 0 9.800782-4.488282 9.800782-10v-39.78125zm0 0" fill="#3762cc"/><path d="m354.351562 405.773438v43.78125c0 7.730468 6.175782 14 13.796876 14h39.601562c7.621094 0 13.800781-6.269532 13.800781-14v-43.78125zm0 0" fill="#f9a7a7"/><path d="m407.75 467.554688h-39.601562c-9.8125 0-17.796876-8.074219-17.796876-18v-43.78125c0-2.207032 1.789063-4 4-4h67.199219c2.210938 0 4 1.792968 4 4v43.78125c0 9.925781-7.988281 18-17.800781 18zm-49.398438-57.78125v39.78125c0 5.511718 4.394532 10 9.796876 10h39.601562c5.402344 0 9.800781-4.488282 9.800781-10v-39.78125zm0 0" fill="#3762cc"/><path d="m470.203125 342.453125c1.128906 0 2.21875.152344 3.269531.414063v-78.886719c0-13.207031-10.550781-23.914063-23.566406-23.914063h-408.214844c-13.015625 0-23.566406 10.707032-23.566406 23.914063v78.472656zm0 0" fill="#4671c6"/><path d="m473.472656 346.867188c-.320312 0-.644531-.039063-.960937-.117188-.792969-.195312-1.570313-.296875-2.308594-.296875h-452.078125c-2.207031 0-4-1.792969-4-4v-78.472656c0-15.394531 12.367188-27.914063 27.566406-27.914063h408.210938c15.203125 0 27.566406 12.519532 27.566406 27.914063v78.886719c0 1.230468-.566406 2.390624-1.535156 3.148437-.707032.558594-1.574219.851563-2.460938.851563zm-451.347656-8.414063h447.347656v-74.472656c0-10.980469-8.777344-19.914063-19.566406-19.914063h-408.210938c-10.792968 0-19.566406 8.933594-19.566406 19.914063v74.472656zm0 0" fill="#3762cc"/><path d="m105.539062 331.570312c-21.90625 0-39.726562-18.082031-39.726562-40.308593 0-22.226563 17.820312-40.308594 39.726562-40.308594 21.902344 0 39.722657 18.082031 39.722657 40.308594 0 22.226562-17.820313 40.308593-39.722657 40.308593zm0 0" fill="#f9a7a7"/><path d="m105.539062 319.394531c-15.289062 0-27.726562-12.621093-27.726562-28.132812s12.4375-28.132813 27.726562-28.132813c15.285157 0 27.722657 12.621094 27.722657 28.132813s-12.4375 28.132812-27.722657 28.132812zm0 0" fill="#ffea92"/><path d="m386.0625 331.570312c-21.90625 0-39.722656-18.082031-39.722656-40.308593 0-22.226563 17.816406-40.308594 39.722656-40.308594 21.902344 0 39.726562 18.082031 39.726562 40.308594 0 22.226562-17.820312 40.308593-39.726562 40.308593zm0 0" fill="#f9a7a7"/><path d="m386.0625 319.394531c-15.289062 0-27.722656-12.621093-27.722656-28.132812s12.4375-28.132813 27.722656-28.132813c15.289062 0 27.726562 12.621094 27.726562 28.132813s-12.4375 28.132812-27.726562 28.132812zm0 0" fill="#ffea92"/><path d="m321.507812 311.886719h-151.414062c-5.339844 0-9.671875-4.328125-9.671875-9.667969v-21.914062c0-5.339844 4.332031-9.671876 9.671875-9.671876h151.414062c5.339844 0 9.667969 4.332032 9.667969 9.671876v21.914062c.003907 5.339844-4.328125 9.667969-9.667969 9.667969zm0 0" fill="#f9cfcf"/><path d="m37.726562 46.15625c-6.742187 14.738281-17.929687 27.015625-31.851562 35.128906-2.5 1.457032-2.5 4.988282 0 6.445313 13.921875 8.109375 25.109375 20.390625 31.851562 35.128906 1.3125 2.863281 5.390626 2.863281 6.703126 0 6.746093-14.738281 17.929687-27.019531 31.855468-35.128906 2.496094-1.457031 2.496094-4.988281 0-6.445313-13.925781-8.109375-25.113281-20.390625-31.855468-35.128906-1.3125-2.863281-5.390626-2.863281-6.703126 0zm0 0" fill="#ffea92"/><path d="m88.652344 1.503906c-4.71875 10.316406-12.550782 18.910156-22.296875 24.589844-1.746094 1.019531-1.746094 3.492188 0 4.511719 9.746093 5.675781 17.578125 14.273437 22.296875 24.589843.917968 2.003907 3.777344 2.003907 4.691406 0 4.71875-10.316406 12.550781-18.910156 22.296875-24.589843 1.75-1.019531 1.75-3.492188 0-4.511719-9.746094-5.679688-17.578125-14.273438-22.296875-24.589844-.917969-2.003906-3.773438-2.003906-4.691406 0zm0 0" fill="#ffea92"/><path d="m365.890625 152.867188v28.003906c0 2.820312-2.285156 5.109375-5.105469 5.109375h-.707031c-2.820313 0-5.109375-2.285157-5.109375-5.109375v-28.003906c0-2.820313 2.289062-5.109376 5.109375-5.109376h.707031c2.820313 0 5.105469 2.289063 5.105469 5.109376zm0 0" fill="#f9cfcf"/><path d="m480.550781 162.671875v8.1875c0 3.019531-2.441406 5.460937-5.457031 5.460937h-109.203125v-19.109374h109.203125c3.015625 0 5.457031 2.445312 5.457031 5.460937zm0 0" fill="#f9a7a7"/><path d="m332.964844 136.820312h-1.191406c-1.507813 0-2.730469 1.222657-2.730469 2.730469v54.601563c0 1.507812 1.222656 2.730468 2.730469 2.730468h1.191406l22.007812-15.027343v-30.007813zm0 0" fill="#ffea92"/><g fill="#3762cc"><path d="m360.785156 189.980469h-.707031c-5.019531 0-9.105469-4.085938-9.105469-9.109375v-28.007813c0-5.019531 4.085938-9.105469 9.105469-9.105469h.707031c5.023438 0 9.109375 4.085938 9.109375 9.105469v28.007813c-.003906 5.023437-4.089843 9.109375-9.109375 9.109375zm-.707031-38.222657c-.609375 0-1.105469.5-1.105469 1.109376v28.003906c0 .613281.496094 1.109375 1.105469 1.109375h.707031c.613282 0 1.109375-.496094 1.109375-1.109375v-28.007813c0-.609375-.496093-1.105469-1.109375-1.105469zm0 0"/><path d="m475.09375 180.320312h-109.203125c-2.207031 0-4-1.792968-4-4v-19.109374c0-2.207032 1.792969-4 4-4h109.203125c5.214844 0 9.457031 4.242187 9.457031 9.460937v8.1875c0 5.21875-4.242187 9.460937-9.457031 9.460937zm-105.203125-8h105.203125c.800781 0 1.457031-.65625 1.457031-1.460937v-8.1875c0-.804687-.65625-1.460937-1.457031-1.460937h-105.203125zm0 0"/><path d="m332.960938 200.882812h-1.1875c-3.710938 0-6.730469-3.023437-6.730469-6.730468v-54.601563c0-3.710937 3.019531-6.730469 6.730469-6.730469h1.1875c.804687 0 1.589843.246094 2.257812.695313l22.007812 15.027344c1.09375.746093 1.746094 1.980469 1.746094 3.304687v30.003906c0 1.324219-.652344 2.558594-1.746094 3.304688l-22.007812 15.027344c-.664062.453125-1.449219.699218-2.257812.699218zm.082031-59.164062v50.265625l17.929687-12.242187v-25.78125zm0 0"/></g><path d="m332.964844 196.882812h-1.191406c-1.507813 0-2.730469-1.222656-2.730469-2.730468v-54.601563c0-1.507812 1.222656-2.730469 2.730469-2.730469h1.191406l3.269531 2.234376v-17.019532c0-2.90625-2.359375-5.269531-5.269531-5.269531h-9.460938c-2.910156 0-5.269531 2.363281-5.269531 5.269531v89.460938c0 2.910156 2.359375 5.269531 5.269531 5.269531h9.460938c2.910156 0 5.269531-2.359375 5.269531-5.269531v-16.847656zm0 0" fill="#6bdddd"/><path d="m330.960938 220.765625h-9.457032c-5.113281 0-9.273437-4.160156-9.273437-9.269531v-89.460938c0-5.109375 4.160156-9.269531 9.273437-9.269531h9.457032c5.113281 0 9.269531 4.160156 9.269531 9.269531v17.019532c0 1.480468-.820313 2.84375-2.128907 3.535156-1.308593.695312-2.894531.605468-4.125-.234375l-.933593-.636719v50.265625l.933593-.640625c1.226563-.835938 2.8125-.925781 4.125-.234375 1.308594.695313 2.128907 2.054687 2.128907 3.539063v16.847656c0 5.109375-4.15625 9.269531-9.269531 9.269531zm-9.457032-100c-.703125 0-1.273437.570313-1.273437 1.269531v89.460938c0 .699218.570312 1.269531 1.273437 1.269531h9.457032c.699218 0 1.269531-.570313 1.269531-1.269531v-10.617188h-.457031c-3.710938 0-6.730469-3.019531-6.730469-6.730468v-54.597657c0-3.710937 3.019531-6.730469 6.730469-6.730469h.457031v-10.785156c0-.699218-.570313-1.269531-1.269531-1.269531zm0 0" fill="#3762cc"/></svg>